<?xml version="1.0" encoding="UTF-8" standalone="no"?>
<svg
   id="UKRI-RGB"
   class="ukri-logo"
   viewBox="0 0 85 85"
   focusable="false"
   version="1.1"
   sodipodi:docname="ukri_notext.svg"
   width="85"
   height="85"
   inkscape:version="1.3.2 (1:1.3.2+202311252150+091e20ef0f)"
   xmlns:inkscape="http://www.inkscape.org/namespaces/inkscape"
   xmlns:sodipodi="http://sodipodi.sourceforge.net/DTD/sodipodi-0.dtd"
   xmlns="http://www.w3.org/2000/svg"
   xmlns:svg="http://www.w3.org/2000/svg"
   xmlns:rdf="http://www.w3.org/1999/02/22-rdf-syntax-ns#"
   xmlns:cc="http://creativecommons.org/ns#"
   xmlns:dc="http://purl.org/dc/elements/1.1/">
  <sodipodi:namedview
     id="namedview24"
     pagecolor="#ffffff"
     bordercolor="#111111"
     borderopacity="1"
     inkscape:showpageshadow="0"
     inkscape:pageopacity="0"
     inkscape:pagecheckerboard="1"
     inkscape:deskcolor="#d1d1d1"
     inkscape:zoom="2.5466667"
     inkscape:cx="75.78534"
     inkscape:cy="42.604712"
     inkscape:window-width="1920"
     inkscape:window-height="1043"
     inkscape:window-x="0"
     inkscape:window-y="0"
     inkscape:window-maximized="1"
     inkscape:current-layer="UKRI-RGB" />
  <defs
     id="defs1">
    <style
       id="style1">.cls-1{fill:#2e2d62;}.cls-2{fill:#fff;}</style>
  </defs>
  <title
     id="title1">UK Research and Innovation home</title>
  <rect
     class="cls-1"
     width="85"
     height="85"
     id="rect23"
     x="0"
     y="0" />
  <path
     class="cls-2"
     d="M 75.65,9.35 H 65.73 L 52.41,23.54 V 9.35 H 33.16 v 18.84 c 0,4 -3,6.37 -6.95,6.37 -3.95,0 -6.94,-2.34 -6.94,-6.37 V 9.35 H 9.35 v 19 c 0,8.5 6.87,13.38 14.61,14.17 H 9.35 v 33.13 h 9.92 V 63.36 h 4.32 l 9.16,12.29 h 42.9 V 69 H 64 V 49.19 H 75.65 V 40.45 L 61.44,25.9 75.65,11.4 Z m -33.15,23 V 47.74 C 40.39,44.17 35.5,42.52 28.33,42.5 34.76,41.85 40.7,38.38 42.5,32.36 Z M 19.27,49.19 h 9.06 c 3.73,0 5.24,1.45 5.24,3.72 0,2.27 -1.51,3.76 -5.24,3.76 H 19.27 Z M 54.12,69 H 42.5 v 4.6 L 34.32,62.88 c 6.23,-1.15 9.44,-4.37 9.44,-10 A 11,11 0 0 0 43.18,49.16 H 54.12 Z M 65.73,42.5 H 52.41 V 28.27 Z"
     id="path24" />
  <metadata
     id="metadata24">
    <rdf:RDF>
      <cc:Work
         rdf:about="">
        <dc:title>UK Research and Innovation home</dc:title>
      </cc:Work>
    </rdf:RDF>
  </metadata>
</svg>
